<svg width="44" height="44" viewBox="0 0 44 44" xmlns="http://www.w3.org/2000/svg">
<g clip-path="url(#clip0_158_20)">
<path d="M9.95484 1.23071C9.59596 1.38452 9.08326 1.98267 8.98072 2.36719C8.92945 2.54663 8.88673 3.05078 8.88673 3.47803V4.27271H6.38307C3.6316 4.27271 3.33253 4.31543 2.3755 4.79395C1.6919 5.14429 0.87159 5.9646 0.521249 6.64819C-0.00853658 7.70776 8.34465e-06 7.41724 8.34465e-06 16.7141C8.34465e-06 24.866 0.00855327 25.1992 0.162362 25.3872C0.38453 25.6606 0.897225 25.6606 1.11939 25.3872C1.2732 25.1992 1.28175 24.9087 1.28175 18.6624V12.134L15.8594 12.1169L30.437 12.0913L30.5994 11.8862C30.813 11.6299 30.8045 11.2368 30.5908 11.0232C30.4199 10.8523 30.3088 10.8523 15.8423 10.8523H1.26466L1.29884 9.37402C1.33302 8.00684 1.35011 7.87012 1.55518 7.41724C1.84571 6.79346 2.46095 6.16968 3.1189 5.84497L3.6316 5.59717L6.26344 5.57153L8.88673 5.5459V6.33203C8.88673 7.32324 9.00636 7.7334 9.44215 8.16064C10.1257 8.84424 11.134 8.88696 11.8518 8.26318C12.3389 7.83594 12.4756 7.45142 12.4756 6.42603V5.55444H18.927H25.3784V6.43457C25.3784 7.17798 25.4126 7.37451 25.575 7.69067C26.1304 8.80151 27.5403 9.03223 28.4119 8.16919C28.8477 7.7334 28.9673 7.33179 28.9673 6.33203V5.5459L31.5991 5.57153L34.2224 5.59717L34.7095 5.82788C35.3845 6.14404 35.9229 6.66528 36.2561 7.34033C36.5295 7.89575 36.5295 7.91284 36.5552 9.37402L36.5894 10.8523H34.5813H32.5647L32.3938 11.0745C32.1887 11.3308 32.1716 11.4419 32.3084 11.7324C32.4707 12.0913 32.7014 12.134 34.6924 12.134H36.5723V16.9534C36.5723 21.5334 36.5808 21.7812 36.7346 21.9692C36.9568 22.2427 37.4695 22.2427 37.6917 21.9692C37.8455 21.7812 37.854 21.4907 37.854 14.9624C37.854 7.54541 37.8626 7.72485 37.367 6.68237C37.0679 6.05859 36.0852 5.07593 35.4614 4.76831C34.5471 4.31543 34.1882 4.27271 31.471 4.27271H28.9673V3.39258C28.9673 2.62354 28.9417 2.46118 28.7537 2.07666C28.617 1.80322 28.4033 1.55542 28.1812 1.40161C27.865 1.17944 27.7539 1.15381 27.1643 1.15381C26.5662 1.15381 26.4722 1.17944 26.1389 1.41016C25.5664 1.81177 25.4297 2.1792 25.3955 3.30713L25.3613 4.27271H18.9185H12.4756V3.34985C12.4756 2.21338 12.3132 1.82031 11.6724 1.38452C11.3135 1.14526 11.1853 1.11108 10.7324 1.11108C10.4504 1.11963 10.1001 1.1709 9.95484 1.23071ZM11.0571 2.52954C11.1768 2.64062 11.1939 2.98242 11.1939 4.91357C11.1939 7.1438 11.1939 7.16943 11.0059 7.29761C10.7495 7.47705 10.5444 7.46851 10.3394 7.26343C10.177 7.10107 10.1685 6.98145 10.1685 4.93066C10.1685 3.11914 10.1856 2.74316 10.3052 2.58081C10.459 2.35864 10.8606 2.32446 11.0571 2.52954ZM27.5317 2.53809C27.677 2.66626 27.6856 2.85425 27.6856 4.88794C27.6856 6.98145 27.677 7.10107 27.5147 7.26343C27.4207 7.35742 27.2669 7.43433 27.1729 7.43433C27.0789 7.43433 26.9251 7.35742 26.8311 7.26343C26.6687 7.10107 26.6602 6.98145 26.6602 4.89648C26.6602 2.97388 26.6773 2.68335 26.8054 2.54663C26.9763 2.35864 27.3267 2.3501 27.5317 2.53809Z"/>
<path d="M4.82747 14.0906C4.15242 14.2615 3.50301 14.8596 3.32356 15.4663C3.02449 16.449 4.11824 16.8848 4.5284 15.9448C4.71639 15.4919 4.90437 15.3467 5.26326 15.3467C5.63924 15.3467 6.00667 15.6885 6.00667 16.0474C6.00667 16.4062 5.73323 16.8933 4.79329 18.1836C3.35774 20.166 3.40047 20.0891 3.45174 20.3796C3.55428 20.9009 3.68245 20.9351 5.51961 20.9351C7.06624 20.9351 7.18587 20.9265 7.34822 20.7642C7.60457 20.5078 7.57893 20.0549 7.29695 19.8328C7.10042 19.679 6.94661 19.6533 6.22884 19.6533C5.75887 19.6533 5.38289 19.6362 5.38289 19.6106C5.38289 19.5935 5.69051 19.1406 6.07503 18.6108C6.85262 17.5256 7.12605 17.0386 7.27132 16.4661C7.46785 15.6628 7.0406 14.7571 6.26302 14.3384C5.81014 14.0906 5.22054 13.988 4.82747 14.0906Z"/>
<path d="M10.006 14.2447C9.80949 14.4412 9.11735 15.5264 7.6818 17.9105C7.45964 18.2694 7.47673 18.6624 7.70744 18.8846C7.87834 19.0384 8.00651 19.0555 9.07463 19.0555H10.2538V19.7818C10.2538 20.397 10.2795 20.5338 10.4247 20.679C10.6383 20.8926 11.0314 20.9012 11.2878 20.6961C11.4501 20.5594 11.4843 20.4312 11.5185 19.7989L11.5612 19.0555H11.809C12.1166 19.0555 12.4755 18.7137 12.4755 18.4146C12.4755 18.1155 12.1166 17.7737 11.8005 17.7737H11.5527L11.5185 16.1417L11.4928 14.5096L11.2109 14.2618C10.8349 13.92 10.3564 13.92 10.006 14.2447ZM10.2538 17.0474V17.7737H9.77531C9.51042 17.7737 9.31388 17.7396 9.33097 17.7054C9.43351 17.4576 10.1342 16.3211 10.194 16.3211C10.2282 16.3211 10.2538 16.6458 10.2538 17.0474Z"/>
<path d="M15.9274 14.313C15.6967 14.407 15.5856 14.6463 14.5004 17.3721C13.2614 20.4825 13.2272 20.6192 13.6117 20.8926C13.8766 21.0806 14.2098 21.0464 14.4149 20.8243C14.6115 20.6106 16.8331 15.0821 16.8331 14.8257C16.8246 14.407 16.3461 14.1336 15.9274 14.313Z"/>
<path d="M18.3205 14.3042C17.9103 14.4836 17.8078 14.9878 18.1154 15.2954C18.2692 15.4492 18.3974 15.4663 19.4398 15.4663C20.0722 15.4663 20.5934 15.4919 20.5934 15.5347C20.5934 15.5688 20.132 16.6455 19.568 17.9272C19.0041 19.209 18.5426 20.3369 18.5426 20.4309C18.5426 20.6702 18.9186 21.0205 19.1664 21.0205C19.286 21.0205 19.4569 20.9521 19.5595 20.8667C19.8073 20.6702 22.2169 15.1758 22.2169 14.8254C22.2169 14.6545 22.1486 14.4922 22.0375 14.3896C21.8752 14.2444 21.6957 14.2273 20.2174 14.2102C18.9784 14.1931 18.5255 14.2102 18.3205 14.3042Z"/>
<path d="M23.7554 15.5435C23.3623 15.6716 23.1487 15.8425 22.9778 16.1672C22.8325 16.4492 22.8154 16.6799 22.8154 18.1155C22.8154 19.9526 22.8838 20.2261 23.4307 20.5508C23.687 20.7046 23.8665 20.7217 25.4644 20.7217C27.1648 20.7217 27.2246 20.7131 27.498 20.5251C27.9937 20.1663 28.0278 20.0125 28.0278 18.1155C28.0278 16.2185 27.9937 16.0647 27.498 15.7058C27.2332 15.5178 27.1392 15.5093 25.5925 15.4922C24.7039 15.4836 23.875 15.5007 23.7554 15.5435ZM26.7461 18.1155V19.4912L25.4473 19.4656L24.1399 19.4399L24.1143 18.0898L24.0886 16.7483H25.4216H26.7461V18.1155Z"/>
<path d="M30.3777 15.552C30.2324 15.5947 30.0273 15.7144 29.9163 15.8169C29.5317 16.1758 29.4805 16.4663 29.4805 18.1326C29.4805 19.5083 29.4976 19.7219 29.6514 20.0381C29.959 20.679 30.1299 20.7217 32.1294 20.7217C34.0776 20.7217 34.1887 20.696 34.522 20.1406C34.6758 19.8928 34.6929 19.7048 34.6929 18.1155C34.6929 16.5261 34.6758 16.3381 34.522 16.0903C34.1973 15.5435 34.0605 15.5093 32.2576 15.4922C31.3689 15.4836 30.5144 15.5093 30.3777 15.552ZM33.4111 18.1155V19.4912L32.1123 19.4656L30.8049 19.4399L30.7793 18.2009C30.7708 17.5259 30.7793 16.9192 30.7964 16.8594C30.8306 16.7739 31.1553 16.7483 32.1294 16.7483H33.4111V18.1155Z"/>
<path d="M4.69116 23.0969C4.16138 23.4473 4.10156 23.6865 4.10156 25.5066C4.10156 27.3267 4.16138 27.5659 4.69116 27.9163C4.9646 28.1042 5.05859 28.1128 6.68213 28.1128C8.59619 28.1128 8.83545 28.0615 9.14307 27.5574C9.29688 27.301 9.31396 27.1387 9.31396 25.5066C9.31396 22.8833 9.33105 22.9004 6.68213 22.9004C5.05859 22.9004 4.9646 22.9089 4.69116 23.0969ZM8.03223 25.5066V26.8311H6.70776H5.3833V25.5066V24.1821H6.70776H8.03223V25.5066Z"/>
<path d="M11.4336 23.0884C10.9038 23.396 10.8525 23.6011 10.8525 25.5066C10.8525 27.4207 10.9038 27.6257 11.4421 27.9248C11.7498 28.1042 11.8865 28.1128 13.4758 28.1128C15.1079 28.1128 15.2019 28.1042 15.4753 27.9163C16.0051 27.5659 16.0649 27.3267 16.0649 25.5066C16.0649 23.6865 16.0051 23.4473 15.4753 23.0969C15.1934 22.9089 15.1165 22.9004 13.4673 22.9004C11.8694 22.9004 11.7241 22.9175 11.4336 23.0884ZM14.7832 25.5066V26.8311H13.4587H12.1343V25.5066V24.1821H13.4587H14.7832V25.5066Z"/>
<path d="M18.209 23.0542C18.0466 23.1311 17.833 23.3105 17.739 23.4387C17.5681 23.6694 17.5596 23.7976 17.5596 25.5066C17.5596 27.2156 17.5681 27.3438 17.739 27.5745C18.0894 28.0615 18.3372 28.1128 20.1487 28.1128C22.0029 28.1128 22.2507 28.053 22.5583 27.5574C22.7122 27.301 22.7292 27.1387 22.7292 25.5066C22.7292 22.8918 22.7378 22.9004 20.1487 22.9004C18.7473 22.9004 18.4568 22.926 18.209 23.0542ZM21.4475 25.5066V26.8311H20.123H18.7986V25.5066V24.1821H20.123H21.4475V25.5066Z"/>
<path d="M32.6929 23.0799C30.4712 23.3875 28.5229 24.3531 26.9592 25.9339C25.0793 27.8223 24.0967 30.1893 24.0967 32.8126C24.0967 36.6834 26.2585 40.0843 29.7791 41.7506C31.0352 42.3487 32.0007 42.5709 33.5815 42.6136C35.4785 42.6734 36.615 42.4427 38.2471 41.6566C39.6313 40.9901 41.1523 39.6656 42.0325 38.3753C42.8528 37.1705 43.4766 35.5299 43.6731 34.0345C43.8354 32.8297 43.6389 30.6678 43.3142 30.0696C43.1091 29.6766 42.5195 29.7022 42.2546 30.1124C42.1265 30.3089 42.1265 30.3773 42.2461 30.9498C42.3145 31.2916 42.3914 31.7188 42.417 31.8897L42.4597 32.2144H41.8616C41.5283 32.2144 41.1865 32.2571 41.0925 32.3084C40.8447 32.4366 40.7336 32.7955 40.8447 33.0775C40.9729 33.3851 41.2634 33.4962 41.9128 33.4962H42.4597L42.4084 33.8209C42.3145 34.5216 42.0239 35.5982 41.7932 36.1536C41.5454 36.7432 40.9216 37.7943 40.5884 38.1873L40.4175 38.3839L39.939 37.9481C39.4177 37.4695 39.1956 37.4183 38.8452 37.6917C38.4692 37.9822 38.5376 38.3668 39.0503 38.9136L39.469 39.358L39.0247 39.6912C37.948 40.4945 36.2732 41.178 35.0427 41.3233L34.5215 41.3831V40.7252C34.5215 40.1868 34.4958 40.0501 34.3506 39.9049C34.137 39.6912 33.7439 39.6827 33.4875 39.8963C33.3167 40.033 33.2825 40.1527 33.2568 40.7166L33.2227 41.3746L32.7356 41.3148C32.052 41.2293 30.9412 40.8875 30.2234 40.5543C29.5996 40.2552 28.3691 39.4434 28.3691 39.3238C28.3691 39.2896 28.5657 39.0675 28.7964 38.8367C29.3091 38.3326 29.3689 37.9822 29.0015 37.6917C28.6426 37.4097 28.4119 37.461 27.9077 37.9395C27.6599 38.1702 27.4292 38.3668 27.4036 38.3668C27.3779 38.3668 27.1729 38.119 26.9592 37.8199C26.2073 36.7689 25.6006 35.2051 25.4211 33.8978L25.3699 33.4962H25.9595C26.6943 33.4962 27.002 33.3082 27.002 32.8467C27.002 32.3597 26.7712 32.2144 26.0193 32.2144C25.2673 32.2144 25.3015 32.2913 25.5408 31.1378C25.7458 30.138 26.1731 29.1041 26.7371 28.2239C27.3608 27.2498 27.3608 27.2413 27.7966 27.66C27.9932 27.848 28.241 28.053 28.3435 28.1043C28.7537 28.3094 29.2236 27.9847 29.2236 27.4891C29.2236 27.3182 29.104 27.1216 28.7878 26.7884L28.3521 26.327L28.8904 25.9339C29.9585 25.1478 32.0093 24.3531 32.9492 24.3531H33.2397V24.8743C33.2397 25.8228 33.7268 26.2501 34.2993 25.7972C34.5044 25.6348 34.5215 25.575 34.5215 24.9854V24.3531H34.8547C35.8374 24.3531 37.8711 25.1307 38.9563 25.9339L39.4946 26.327L39.0588 26.7884C38.5376 27.3438 38.4692 27.7198 38.8452 28.0189C39.187 28.2923 39.3579 28.241 39.9048 27.7198L40.4089 27.2413L40.802 27.7882C41.0156 28.0787 41.2634 28.3778 41.3403 28.429C41.6907 28.711 42.2974 28.3863 42.2974 27.9249C42.2974 27.4036 40.802 25.669 39.6399 24.8402C38.5205 24.054 37.2473 23.4986 35.8374 23.1995C35.0769 23.0372 33.4448 22.9688 32.6929 23.0799Z"/>
<path d="M0.179443 27.3096C0.00854492 27.5317 0 27.6343 0 30.4626C0 32.0691 0.0341797 33.5986 0.0854492 33.8464C0.384521 35.4956 1.85425 36.991 3.48633 37.3328C3.80249 37.4011 6.85303 37.4268 13.5095 37.4268H23.0798L23.2849 37.2131C23.4045 37.1021 23.4985 36.9482 23.4985 36.8799C23.4985 36.6748 23.3191 36.333 23.1653 36.2561C23.0884 36.2219 18.6621 36.1707 13.3301 36.145L3.63159 36.1023L3.14453 35.8716C2.46948 35.5554 1.93115 35.0342 1.5979 34.3591L1.32446 33.7952L1.28174 30.625C1.23901 27.6514 1.23047 27.4377 1.07666 27.2668C0.837402 27.002 0.401611 27.0276 0.179443 27.3096Z"/>
<path d="M33.658 27.8906C33.2992 28.0615 33.2393 28.3264 33.2393 29.7021V31.001L32.983 31.1035C32.6754 31.2317 32.2396 31.7102 32.0772 32.0947C31.8978 32.522 31.9234 33.291 32.1371 33.7268C32.5216 34.5129 33.4359 34.9573 34.316 34.7778L34.7945 34.6753L35.9225 35.7947C36.9564 36.8115 37.0846 36.9141 37.3665 36.9141C37.5973 36.9141 37.7169 36.8542 37.8451 36.6919C38.1869 36.2646 38.11 36.1279 36.8709 34.8633C35.7686 33.7439 35.7174 33.6841 35.8028 33.4619C36.0934 32.7014 35.7174 31.6846 34.974 31.189L34.5211 30.8984V29.5227C34.5211 28.3093 34.504 28.1213 34.3758 28.0103C34.1537 27.8223 33.8802 27.7795 33.658 27.8906ZM34.2562 32.2571C34.9996 32.6416 34.4613 33.761 33.6666 33.4875C33.1966 33.3167 33.077 32.71 33.453 32.3425C33.6922 32.0947 33.9144 32.0776 34.2562 32.2571Z"/>
<path d="M4.69116 29.4204C4.16138 29.7708 4.10156 30.01 4.10156 31.8301C4.10156 33.616 4.15283 33.8638 4.63989 34.2141C4.86206 34.3765 5.02441 34.3936 6.62231 34.4192C8.22876 34.4448 8.39111 34.4363 8.69873 34.274C9.2627 33.9834 9.31396 33.7783 9.31396 31.7874C9.31396 29.2154 9.32251 29.2239 6.68213 29.2239C5.05859 29.2239 4.9646 29.2324 4.69116 29.4204ZM8.03223 31.8301V33.1546H6.70776H5.3833V31.8301V30.5056H6.70776H8.03223V31.8301Z"/>
<path d="M11.4759 29.3602C11.3221 29.4371 11.117 29.6251 11.023 29.7875C10.8521 30.0524 10.8436 30.1805 10.8692 31.9066L10.8949 33.7438L11.1427 34.0001C11.5443 34.4188 11.7066 34.4444 13.5694 34.4188C15.1417 34.3932 15.304 34.3761 15.5262 34.2137C16.0133 33.8634 16.0645 33.6156 16.0645 31.8297C16.0645 30.0096 16.0047 29.7704 15.4749 29.42C15.1929 29.232 15.116 29.2235 13.4669 29.2235C12.0655 29.2235 11.6981 29.2491 11.4759 29.3602ZM14.7828 31.8297V33.1542H13.4583H12.1339V31.8297V30.5052H13.4583H14.7828V31.8297Z"/>
<path d="M18.1406 29.3945C17.5852 29.7278 17.5596 29.8303 17.5596 31.8298C17.5596 33.5901 17.5596 33.6328 17.7646 33.9148C18.0979 34.3848 18.3372 34.436 20.1743 34.436C22.0029 34.436 22.2507 34.3762 22.5583 33.8806C22.7122 33.6243 22.7292 33.4619 22.7292 31.8213C22.7292 29.2065 22.7463 29.2236 20.106 29.2236C18.5764 29.2236 18.3884 29.2407 18.1406 29.3945ZM21.4475 31.8298V33.1543H20.123H18.7986V31.8298V30.5054H20.123H21.4475V31.8298Z"/>
</g>
<defs>
<clipPath id="clip0_158_20">
<rect width="43.75" height="43.75" fill="white"/>
</clipPath>
</defs>
</svg>
