<?xml version="1.0" standalone="no"?>
<!DOCTYPE svg PUBLIC "-//W3C//DTD SVG 20010904//EN"
 "http://www.w3.org/TR/2001/REC-SVG-20010904/DTD/svg10.dtd">
<svg version="1.0" xmlns="http://www.w3.org/2000/svg"
 width="2651.000000pt" height="2485.000000pt" viewBox="0 0 2651.000000 2485.000000"
 preserveAspectRatio="xMidYMid meet">

<g transform="translate(0.000000,2485.000000) scale(0.100000,-0.100000)"
fill="#000000" stroke="none">
<path d="M14472 24760 c-1271 -53 -2490 -314 -3672 -788 -291 -117 -741 -328
-1020 -480 -967 -523 -1725 -1086 -2486 -1847 -554 -553 -869 -932 -1324
-1594 -374 -544 -758 -1253 -1030 -1901 -229 -546 -451 -1233 -594 -1835 -50
-210 -119 -555 -114 -561 3 -2 25 18 50 44 40 41 55 69 114 222 240 623 459
1085 797 1675 124 216 337 558 436 700 588 844 1081 1403 1822 2063 242 215
718 582 1009 778 1357 913 2933 1493 4523 1663 1138 123 2302 59 3397 -186
631 -140 1356 -370 2016 -638 982 -398 1916 -958 2729 -1634 457 -380 967
-892 1331 -1336 899 -1094 1557 -2343 1929 -3660 442 -1565 501 -3161 174
-4735 -140 -675 -342 -1295 -654 -2015 -301 -693 -778 -1481 -1305 -2158 -29
-37 -51 -69 -49 -71 2 -2 34 -13 72 -26 l67 -22 98 90 c140 130 496 493 648
662 666 740 1238 1590 1654 2459 410 857 669 1663 839 2606 105 583 151 1116
151 1741 0 600 -38 1080 -130 1649 -170 1046 -479 2012 -950 2973 -172 351
-234 464 -417 769 -580 969 -1245 1777 -2098 2549 -709 642 -1630 1277 -2362
1628 -1331 638 -2693 1025 -4098 1166 -486 48 -1110 68 -1553 50z"/>
<path d="M8705 17990 c-1003 -49 -1697 -204 -2210 -492 -328 -185 -623 -454
-825 -753 -45 -67 -56 -77 -152 -130 -333 -188 -726 -442 -980 -631 -168 -126
-379 -333 -453 -444 -99 -149 -159 -295 -186 -453 -18 -111 -7 -323 25 -442
48 -183 164 -386 328 -575 124 -143 448 -395 713 -557 1167 -709 2879 -1298
5278 -1814 108 -24 197 -46 197 -51 0 -4 -42 -8 -92 -8 -187 0 -1152 -20
-1458 -30 -673 -22 -1100 -56 -1225 -96 -113 -37 -328 -219 -756 -641 -261
-258 -630 -655 -637 -687 -2 -7 5 -23 15 -35 l18 -21 111 49 c399 179 953 300
1746 381 444 45 1303 85 1709 78 l206 -3 -249 -695 c-137 -382 -388 -1082
-558 -1555 -739 -2054 -767 -2135 -753 -2135 7 0 145 66 306 146 315 158 350
174 712 330 l240 103 176 458 c236 611 711 1851 1027 2681 l257 673 1595 -4
c1072 -4 1749 -10 2065 -20 l470 -15 31 27 c18 14 101 87 185 162 224 197 336
291 533 444 163 126 176 139 176 169 l0 32 -912 33 c-2022 73 -2347 93 -3585
227 -90 10 -163 21 -163 25 0 4 50 146 111 316 61 169 241 668 399 1108 159
440 405 1124 548 1520 519 1441 664 1846 661 1850 -2 2 -76 -26 -164 -61 -201
-82 -475 -175 -625 -212 -63 -16 -226 -51 -362 -77 -201 -40 -248 -52 -248
-65 0 -37 -85 -344 -163 -590 -46 -146 -180 -537 -297 -870 -184 -525 -653
-1862 -887 -2532 -47 -133 -82 -218 -89 -218 -20 0 -534 132 -804 207 -824
226 -1482 465 -1935 702 -521 272 -956 594 -1419 1050 -227 223 -393 411 -551
621 -248 332 -373 567 -459 864 -55 190 -73 438 -42 597 106 552 750 900 1871
1013 415 42 582 49 1115 49 818 -1 1717 -45 2940 -143 568 -46 590 -48 1080
-101 826 -90 2963 -377 3895 -524 710 -112 1125 -175 1145 -175 18 0 11 28 -9
35 -29 9 -41 46 -24 75 19 33 102 94 186 136 257 130 918 355 1687 574 349 99
350 100 350 115 0 8 -6 15 -13 15 -77 0 -2859 318 -5287 604 -570 68 -985 113
-1320 146 -63 6 -252 27 -420 45 -783 88 -1482 144 -2240 180 -369 18 -1310
27 -1555 15z"/>
</g>
</svg>
