<svg width="38" height="38" viewBox="0 0 38 38" fill="none" xmlns="http://www.w3.org/2000/svg">
<path d="M23.6387 0.185547L23.4531 0.363674V4.59414V8.82461L22.0355 8.84688L20.618 8.86914L20.4398 9.07695L20.2617 9.28477V19.6309V29.977L20.4398 30.1848L20.618 30.3926L22.0355 30.4148L23.4531 30.4371L23.4383 31.6766L23.416 32.916L21.9836 32.9531C20.5809 32.9902 20.5437 32.9977 20.4027 33.1684C20.2691 33.3316 20.2617 33.4875 20.2617 35.4766V37.6066L20.4547 37.807L20.6551 38H25.9469H31.2387L31.4465 37.8219L31.6543 37.6438L31.6765 35.6102C31.6914 34.4969 31.6765 33.5098 31.6543 33.4207C31.632 33.3316 31.543 33.1832 31.4539 33.1016C31.3055 32.9605 31.1941 32.9531 29.8953 32.9531H28.5V31.6914V30.4297H29.7988C31.2238 30.4297 31.439 30.3777 31.6023 30.0215C31.6691 29.873 31.6914 27.3793 31.6914 19.6234C31.6914 8.39414 31.7211 9.08438 31.2387 8.91367C31.0976 8.86914 30.4742 8.83203 29.7543 8.83203H28.5V5.23985V1.65508L28.3219 1.47696C28.1289 1.28399 24.3957 0 24.0246 0C23.9059 0 23.7426 0.0742188 23.6387 0.185547ZM26.0137 1.95195L27.2012 2.35273L27.2234 5.58867L27.2383 8.83203H25.9766H24.7148V5.19531C24.7148 3.19141 24.7371 1.55859 24.7742 1.55859C24.8039 1.55859 25.3605 1.73672 26.0137 1.95195ZM30.3555 19.6309V29.0938H25.9394H21.5234V19.6309V10.168H25.9394H30.3555V19.6309ZM27.2234 31.6691L27.2012 32.916L25.9617 32.9383L24.7148 32.9531V31.6914V30.4297H25.9766H27.2383L27.2234 31.6691ZM30.3555 35.4766V36.7383H25.9394H21.5234V35.4766V34.2148H25.9394H30.3555V35.4766Z" fill="#CA9457"/>
<path d="M22.7852 12.0234V12.6914H25.3086H27.832V13.9531V15.2148H28.5H29.168V13.6266C29.168 12.6988 29.1383 11.9492 29.0863 11.8156C28.9305 11.3703 28.834 11.3555 25.65 11.3555H22.7852V12.0234Z" fill="#CA9457"/>
<path d="M22.7852 14.584V15.2148H24.7148H26.6445V14.584V13.9531H24.7148H22.7852V14.584Z" fill="#CA9457"/>
<path d="M27.832 17.1074V17.7383H28.5H29.168V17.1074V16.4766H28.5H27.832V17.1074Z" fill="#CA9457"/>
<path d="M22.7852 18.3691V19H24.7148H26.6445V18.3691V17.7383H24.7148H22.7852V18.3691Z" fill="#CA9457"/>
<path d="M22.7852 22.1543V22.7852H24.7148H26.6445V22.1543V21.5234H24.7148H22.7852V22.1543Z" fill="#CA9457"/>
<path d="M22.7852 25.9766V26.6445L24.7 26.6297L26.6074 26.6074V25.9766V25.3457L24.7 25.3234L22.7852 25.3086V25.9766Z" fill="#CA9457"/>
<path d="M17.7383 5.71484V6.38281H18.3691H19V5.71484V5.04688H18.3691H17.7383V5.71484Z" fill="#CA9457"/>
<path d="M5.06133 6.9543L5.08359 7.60742H5.71445H6.34531V6.97656V6.3457L5.69219 6.32344L5.03906 6.30117L5.06133 6.9543Z" fill="#CA9457"/>
<path d="M8.86241 8.92851C8.84014 8.98789 8.83272 9.27734 8.84757 9.58164L8.86983 10.1309H9.50069H10.1315V9.5V8.86914L9.51553 8.84687C9.04796 8.83203 8.8921 8.84687 8.86241 8.92851Z" fill="#CA9457"/>
<path d="M12.9363 13.8789C10.5316 14.3168 8.75781 16.4097 8.75781 18.8218C8.75781 19.6457 8.83945 20.1058 9.09922 20.7664C9.69297 22.2508 11.0809 23.5051 12.6469 23.9875C13.6488 24.2918 15.007 24.2176 15.9941 23.8094C17.2781 23.2676 18.3914 22.0949 18.8367 20.8035C19.3117 19.4379 19.2301 18.1836 18.577 16.8476C17.9684 15.6082 16.7066 14.5246 15.341 14.0644C14.6879 13.8492 13.5895 13.7601 12.9363 13.8789ZM14.7695 15.3336C15.0293 15.3929 15.3855 15.5117 15.5562 15.6007L15.868 15.7566L13.4484 18.5769L11.0289 21.3972L10.8879 21.2191C10.4723 20.6996 10.168 19.7867 10.168 19.0371C10.168 16.5879 12.4168 14.7769 14.7695 15.3336ZM17.2781 17.3004C18.0723 18.8812 17.7605 20.6031 16.4543 21.798C15.3336 22.8222 13.6117 23.0746 12.3129 22.4066L12.0086 22.2582L12.1867 22.0355C12.9215 21.1152 16.8254 16.6324 16.8848 16.6547C16.9293 16.6621 17.1 16.9515 17.2781 17.3004Z" fill="#CA9457"/>
<path d="M32.9531 14.584V15.2148H33.584H34.2148V14.584V13.9531H33.584H32.9531V14.584Z" fill="#CA9457"/>
<path d="M2.52344 17.1074V17.7383H3.1543H3.78516V17.1074V16.4766H3.1543H2.52344V17.1074Z" fill="#CA9457"/>
<path d="M34.2148 18.3691V19H34.8457H35.4766V18.3691V17.7383H34.8457H34.2148V18.3691Z" fill="#CA9457"/>
<path d="M7.83017 24.1656C7.54814 24.225 6.9915 24.4254 6.60556 24.6184C5.35869 25.227 4.379 26.4071 3.96338 27.7949C3.77783 28.411 3.77783 29.8508 3.96338 30.4668C4.47549 32.1664 5.83369 33.5246 7.5333 34.0367C8.14931 34.2223 9.58916 34.2223 10.2052 34.0367C11.5931 33.6211 12.7731 32.6414 13.3817 31.3946C14.1388 29.8508 14.1388 28.411 13.3817 26.8672C13.0997 26.2957 12.929 26.0582 12.4392 25.561C11.9419 25.0711 11.7044 24.9004 11.1329 24.6184C10.0196 24.0766 8.97314 23.9281 7.83017 24.1656ZM9.87861 25.5016C10.5466 25.702 10.9919 25.9692 11.5114 26.4887C12.0235 27.0008 12.2981 27.4535 12.4911 28.1067L12.6099 28.5H8.86923H5.13603L5.2251 28.1438C5.54424 26.9414 6.54619 25.9246 7.78564 25.5239C8.32002 25.3531 9.33681 25.3383 9.87861 25.5016ZM12.5134 30.1106C12.1868 31.3203 11.1403 32.3891 9.89345 32.7676C9.4333 32.916 8.30517 32.916 7.84502 32.7676C6.57588 32.3817 5.55166 31.3426 5.23252 30.1254L5.13603 29.7617H8.86923H12.6024L12.5134 30.1106Z" fill="#CA9457"/>
<path d="M16.4766 31.0234V31.6914H17.1074H17.7383V31.0234V30.3555H17.1074H16.4766V31.0234Z" fill="#CA9457"/>
<path d="M15.2148 33.584V34.2148H15.8457H16.4766V34.8457V35.4766H17.1074H17.7383V34.8457V34.2148H17.1074H16.4766V33.584V32.9531H15.8457H15.2148V33.584Z" fill="#CA9457"/>
</svg>
