<svg width="38" height="38" viewBox="0 0 38 38" xmlns="http://www.w3.org/2000/svg">
<path d="M21.709 0.0816383C21.4789 0.207809 17.4414 4.24531 17.3227 4.46796C17.1668 4.76484 17.1965 5.00976 17.4043 5.25468C17.627 5.52187 17.9238 5.60351 18.2281 5.49218C18.3469 5.44765 19.2523 4.60156 20.2469 3.61445L22.043 1.81836L28.5371 8.3125L35.0312 14.8066L33.7547 14.8289L32.4781 14.8437L27.4238 9.79687L22.3695 4.75H22.043H21.709L16.6621 9.79687L11.6152 14.8437H10.2793H8.94336L11.7488 12.0383C14.4504 9.33672 14.5469 9.22539 14.5469 8.95078C14.5469 8.54257 14.2277 8.23828 13.7973 8.23828H13.4781L9.96758 11.7488L6.45703 15.2519V15.5637C6.45703 15.7863 6.50898 15.9348 6.63516 16.0832L6.81328 16.291L8.41641 16.3133L10.0195 16.3355V19.4898V22.6367H9.47031H8.92109L8.89141 22.132C8.83945 21.2117 8.23086 20.373 7.36992 20.0316C6.9543 19.8609 6.85781 19.8609 3.92617 19.8312C0.571484 19.8016 0.385938 19.8238 0.148438 20.2098C0.00742188 20.4398 0 20.6477 0 28.9602V37.4805L0.215234 37.718L0.430469 37.9629H3.72578C7.48867 37.9629 7.44414 37.9703 8.13438 37.3172C8.58711 36.8867 8.83945 36.3672 8.89883 35.7215L8.94336 35.2687L9.9082 35.8625C11.6969 36.9609 12.8547 37.4656 14.3465 37.7922C15.1035 37.9629 15.1258 37.9629 21.7461 37.9629C27.9582 37.9629 28.4332 37.9555 29.0195 37.8219C30.2738 37.5473 31.4391 37.0574 32.4039 36.3969C33.1387 35.8996 37.0352 32.723 37.332 32.3891C38.5121 31.0383 38.0371 29.0492 36.3152 28.1734C35.8848 27.9582 35.0609 27.8766 34.534 28.0027L34.0664 28.1066V22.2211V16.3281H35.5508C37.1762 16.3281 37.3766 16.291 37.5398 15.9199C37.6586 15.6676 37.6512 15.4746 37.525 15.2297C37.4062 15.0145 22.7184 0.319138 22.4141 0.118748C22.2063 -0.0148468 21.9242 -0.0296898 21.709 0.0816383ZM26.8672 11.3258C29.502 13.9605 31.7434 16.1648 31.8547 16.2242C31.966 16.2836 32.1738 16.3281 32.3223 16.3281H32.582V22.7332V29.1383L32.0477 29.5316C31.7508 29.7543 31.3945 30.0141 31.2684 30.118C31.0383 30.2887 31.0234 30.2887 30.9789 30.1625C30.7266 29.3535 30.207 28.7672 29.5168 28.5074C29.1531 28.3738 28.9305 28.3516 28.0176 28.3516H26.9414L26.9266 22.8965L26.9043 17.4414L26.6965 17.241L26.4961 17.0332L22.132 17.0109C18.948 16.9961 17.7234 17.0184 17.5676 17.0777C17.152 17.2484 17.1445 17.3152 17.1445 20.4844C17.1445 22.0875 17.1223 23.3789 17.0926 23.3641C15.8531 22.7258 15.4004 22.6441 13.1961 22.6367H11.5039V19.4824V16.3281H11.7637C11.9121 16.3281 12.1199 16.2836 12.2313 16.2242C12.3426 16.1648 14.584 13.9605 17.2188 11.3258C19.8535 8.69101 22.0207 6.53125 22.043 6.53125C22.0652 6.53125 24.2324 8.69101 26.8672 11.3258ZM25.457 23.416V28.3516H23.9875C22.043 28.3516 22.2211 28.4406 20.1949 26.3773L18.6289 24.7816V21.6348V18.4805H22.043H25.457V23.416ZM6.97656 21.4937C7.45156 21.7758 7.42188 21.3379 7.42188 28.9082C7.42188 36.4934 7.45156 36.0703 6.9543 36.3672C6.73164 36.5082 6.56094 36.5156 4.1043 36.5156H1.48438V28.9453V21.375H4.12656C6.44219 21.375 6.79102 21.3898 6.97656 21.4937ZM15.1777 24.2027C16.0238 24.3586 16.2094 24.507 18.7031 26.9785C20.1504 28.4109 21.1598 29.3535 21.3527 29.4574C22.0652 29.8137 22.3102 29.8359 25.702 29.8359C29.309 29.8359 29.2199 29.8211 29.4797 30.4C29.6578 30.8156 29.6059 31.2609 29.3461 31.5207L29.168 31.6988L24.3289 31.6766C18.666 31.6543 19.4898 31.7953 17.5008 30.4965C16.0535 29.5539 15.7715 29.4574 15.4078 29.7691C15.1332 30.0141 15.0664 30.4668 15.2742 30.734C15.4523 30.9566 17.9535 32.5969 18.4508 32.8121C19.2227 33.1535 19.4973 33.1758 24.5441 33.1758C29.0121 33.1758 29.3387 33.1684 29.6801 33.0348C29.8953 32.9531 30.875 32.2703 32.1813 31.2832C33.3613 30.3926 34.4746 29.5984 34.6527 29.5168C35.1871 29.2793 35.766 29.4426 36.2039 29.9398C36.4934 30.2738 36.575 30.6598 36.434 31.0531C36.3227 31.3797 36.1594 31.5207 33.057 34.0144C31.068 35.6176 30.0957 36.1223 28.5074 36.3969C27.8988 36.5008 26.9934 36.5156 21.85 36.5156C18.05 36.5156 15.6824 36.4859 15.3113 36.434C13.7082 36.2187 12.773 35.8402 10.5984 34.534L8.90625 33.5172V28.8191V24.1211H11.823C13.6117 24.1211 14.9105 24.1508 15.1777 24.2027Z"/>
<path d="M21.1528 9.92309C20.6852 10.0864 20.084 10.502 19.8168 10.836C19.6907 10.9918 19.4977 11.3184 19.3938 11.5559C19.2157 11.927 19.186 12.0829 19.1934 12.6543C19.1934 13.5004 19.379 14.0125 19.8985 14.584C21.2418 16.0461 23.6317 15.7715 24.552 14.0497C25.3461 12.5504 24.7672 10.7914 23.2457 10.0715C22.8227 9.87114 22.652 9.83403 22.1176 9.81918C21.6872 9.80434 21.3829 9.84145 21.1528 9.92309ZM22.8153 11.5114C23.1122 11.7043 23.4536 12.3055 23.4536 12.6098C23.4536 13.5895 22.5481 14.2649 21.6129 13.9903C20.4477 13.6414 20.2993 11.9864 21.3903 11.4372C21.8207 11.2145 22.4368 11.2516 22.8153 11.5114Z"/>
<path d="M29.6499 18.9555C29.4124 19.193 29.353 19.4676 29.4644 19.7496C29.5905 20.0391 29.8058 20.1875 30.1323 20.1875C30.4589 20.1875 30.6741 20.0391 30.8003 19.7496C30.9933 19.2746 30.6519 18.7773 30.1323 18.7773C29.9097 18.7773 29.7835 18.8219 29.6499 18.9555Z"/>
<path d="M29.7395 21.6794C29.4129 21.8724 29.3906 22.0431 29.3906 24.7075V27.2384L29.5984 27.4611C29.7246 27.6021 29.8953 27.706 30.066 27.7282C30.2961 27.7654 30.3777 27.7357 30.5855 27.5501L30.8379 27.3275L30.8602 24.7818C30.8824 22.1099 30.8602 21.9243 30.5484 21.7091C30.3703 21.5829 29.9324 21.5681 29.7395 21.6794Z"/>
<path d="M19.9948 22.7482C19.453 23.0228 19.4678 23.7575 20.0171 24.0396C20.262 24.1657 20.5143 24.1361 20.737 23.9654C21.0116 23.7501 21.1007 23.4904 21.0042 23.1935C20.8483 22.7259 20.4178 22.5404 19.9948 22.7482Z"/>
<path d="M4.19359 32.5745C3.74085 32.7601 3.59984 33.3761 3.9264 33.7249C4.51273 34.3484 5.46273 33.6953 5.10648 32.916C4.95804 32.5894 4.54241 32.4335 4.19359 32.5745Z"/>
<path d="M15.4226 6.33084C14.903 6.81327 15.2296 7.61483 15.9421 7.59256C16.2612 7.58514 16.6249 7.23631 16.6249 6.93202C16.6249 6.29374 15.8679 5.91522 15.4226 6.33084Z"/>
</svg>
