<svg width="38" height="38" viewBox="0 0 38 38" fill="none" xmlns="http://www.w3.org/2000/svg">
<path d="M27.8699 0.51955C27.1722 0.623455 26.0441 1.02423 25.4206 1.37307C23.7136 2.34533 22.4964 3.93361 21.9991 5.82619C21.821 6.509 21.7988 6.72424 21.7691 8.43127L21.732 10.2942L21.3831 10.168C20.782 9.93791 19.9878 9.85627 18.6445 9.87853C17.5163 9.90822 17.3679 9.89338 17.3679 9.78947C17.3679 9.53713 16.9003 8.74299 16.6183 8.52033L16.3288 8.29025V5.59611C16.3288 3.17658 16.314 2.86486 16.1878 2.45666C15.9429 1.66252 15.4308 1.1133 14.5847 0.72736C14.2952 0.601189 14.0726 0.564079 13.5827 0.55666C13.0261 0.55666 12.8925 0.586346 12.4695 0.786736C12.2023 0.912907 11.8683 1.13556 11.7199 1.284L11.4527 1.54377L11.1632 1.25431C10.9999 1.09103 10.6882 0.868378 10.4656 0.75705L10.0574 0.55666H8.09056C5.98274 0.55666 5.54485 0.616032 5.09954 0.972282C4.83977 1.17267 4.82493 1.55861 5.06985 1.78127C5.24798 1.95197 5.35188 1.95197 6.12376 1.75158C6.45774 1.66252 6.94759 1.63283 8.12767 1.63283C9.48587 1.63283 9.72337 1.65509 9.98313 1.77385C10.5769 2.04845 10.8366 2.52346 10.8366 3.33986C10.8366 4.00041 10.5917 4.54221 10.0574 5.084C9.36712 5.76682 8.5136 6.07853 7.3261 6.08595C6.13118 6.08595 5.06985 6.68713 4.4761 7.6965C4.34251 7.934 4.24602 8.01564 4.11243 8.01564H3.93431V6.02658C3.94173 4.20822 3.94915 4.01525 4.09016 3.63674C4.32766 3.0133 4.34993 2.66447 4.16438 2.49377C3.97884 2.32306 3.62259 2.30822 3.44446 2.45666C3.27376 2.59768 3.00657 3.20627 2.90266 3.69611C2.85071 3.93361 2.82102 4.89103 2.82102 6.11564V8.14181L2.46477 8.36447C2.07141 8.60939 1.67806 9.14377 1.55188 9.60392C1.43313 10.0344 1.50735 10.8137 1.70032 11.1848C2.06399 11.9047 2.82102 12.3945 3.57806 12.3945H4.0011L4.03821 12.6692C4.18665 13.6934 4.32766 14.1906 4.63196 14.8141C5.00306 15.5637 5.67845 16.3578 6.30188 16.7809C6.5097 16.9219 6.6804 17.0555 6.6804 17.0852C6.6804 17.1074 6.56165 17.2039 6.42806 17.293C5.93821 17.5899 5.15891 18.5176 4.83977 19.1633C4.3722 20.1356 4.3054 20.5141 4.3054 22.3621V23.9727H4.10501C3.98626 23.9727 3.46673 23.9059 2.93977 23.8242C2.1011 23.7055 1.95266 23.6981 1.78196 23.7871C1.67063 23.8465 1.55931 23.9504 1.52962 24.0098C1.50735 24.0766 1.48509 25.2492 1.48509 26.6149V29.0938L1.12141 29.2719C-0.362961 30.0289 -0.355539 32.159 1.14368 32.8715C1.55931 33.0719 2.07141 33.1535 7.8679 33.9848L14.1394 34.8903L14.2878 35.0906C14.8816 35.8922 15.8167 36.6641 16.6406 37.0278C17.4941 37.4063 17.9913 37.5102 19.0007 37.5102C20.0101 37.5102 20.5074 37.4063 21.3609 37.0278C22.1921 36.6567 23.0011 35.9887 23.6765 35.1278C23.8546 34.8977 23.8991 34.8828 24.7156 34.7715C25.1831 34.7047 25.6581 34.6379 25.7769 34.6156L25.9773 34.5711V35.5285C25.9847 36.8274 26.1777 37.243 26.9124 37.4805C27.3949 37.6438 27.7659 37.525 28.5081 36.961C28.8792 36.6789 29.2281 36.4637 29.2726 36.4934C29.3171 36.5231 29.6288 36.7531 29.9628 37.0055C30.3116 37.2727 30.6827 37.4953 30.8312 37.5176C31.3581 37.6215 31.937 37.3617 32.2265 36.9016C32.3898 36.6418 32.3972 36.5379 32.4195 35.1352L32.4417 33.6508L34.4234 33.3688C36.123 33.1313 36.4718 33.057 36.8577 32.8715C38.357 32.159 38.3644 30.0289 36.88 29.2719L36.5163 29.0938V26.6149C36.5163 25.2492 36.4941 24.0766 36.4718 24.0098C36.4421 23.9504 36.3308 23.8465 36.2195 23.7871C36.0265 23.6832 35.5738 23.7203 34.312 23.9356L34.0671 23.9801V22.5477C34.0671 21.761 34.03 20.9 33.9855 20.6403C33.7999 19.4602 33.1097 18.2727 32.1597 17.486L31.6327 17.0481L31.9519 16.8328C32.3601 16.5656 33.0429 15.8828 33.3324 15.4598L33.555 15.1406H34.5941H35.6406L35.8632 14.918L36.0784 14.6953L36.0488 10.6356C36.0265 6.76134 36.0117 6.53869 35.8632 5.95236C35.1656 3.29533 33.221 1.34338 30.5937 0.660564C29.9331 0.489861 28.5378 0.415642 27.8699 0.51955ZM30.1335 1.70705C32.3675 2.15978 34.1413 3.87424 34.7499 6.16017C34.9132 6.77619 34.9206 6.88752 34.9206 10.3906V13.9903L34.4827 14.0125L34.0523 14.0348L34.1042 13.827C34.2601 13.2481 34.2824 12.8399 34.2898 10.5688C34.2898 7.66681 34.3417 7.83752 33.4808 7.71877C32.5085 7.58517 31.7218 6.97658 31.3952 6.1008C31.1949 5.57384 31.0613 5.41799 30.7941 5.41799C30.4527 5.41799 30.3562 5.49221 30.1261 5.95978C29.8218 6.55353 29.2503 7.11017 28.6343 7.41447C28.2113 7.62228 28.0183 7.66681 27.2984 7.72619C25.6804 7.85978 25.2574 8.0008 24.5745 8.63908C23.862 9.31447 23.5281 10.0567 23.5281 10.9844V11.5113L23.1866 11.2367L22.8452 10.9547L22.8749 8.79494C22.912 6.71681 22.9195 6.62033 23.1124 5.97463C23.4464 4.86135 23.8324 4.22306 24.6784 3.36955C25.339 2.70158 25.5023 2.57541 26.1999 2.234C27.5062 1.5883 28.7456 1.41759 30.1335 1.70705ZM14.3027 1.80353C14.6144 1.96682 14.9187 2.29338 15.0745 2.63478C15.2007 2.90197 15.2156 3.16916 15.2156 5.46994V8.01564H15.0374C14.8593 8.01564 14.8593 8.00822 14.8296 7.19181C14.7999 6.21955 14.748 6.13791 14.0503 6.04885C13.2562 5.95978 12.5585 5.53674 12.1577 4.90588C11.9648 4.59416 11.9499 4.51994 11.9499 3.8297C11.9499 3.41408 11.987 2.9465 12.0316 2.79064C12.1355 2.41955 12.6476 1.87775 13.0261 1.73674C13.3749 1.61057 13.9835 1.64025 14.3027 1.80353ZM12.3359 6.60549C12.5659 6.76134 12.9741 6.94689 13.2413 7.02111L13.7312 7.16213V9.75236V12.35L13.4714 12.9586C13.3304 13.2926 13.1671 13.8195 13.1226 14.1313C13.0409 14.636 12.989 14.7547 12.6773 15.1406C12.232 15.6899 11.4007 16.2465 10.6808 16.4766C9.99798 16.6992 8.95892 16.7215 8.2761 16.5211C7.16282 16.1945 6.11634 15.3262 5.62649 14.3242C5.1886 13.4188 5.15891 13.1887 5.15891 10.9102C5.15891 8.93596 5.16634 8.85431 5.32962 8.49806C5.53743 8.05275 5.94563 7.61486 6.34641 7.40705C6.57649 7.2883 6.86595 7.23635 7.59329 7.19181C8.33548 7.13986 8.68431 7.08049 9.16673 6.91721C9.81985 6.68713 10.5917 6.19728 10.9554 5.76682L11.1706 5.51447L11.5417 5.92267C11.7421 6.15275 12.0984 6.45705 12.3359 6.60549ZM31.8554 8.31252C32.0855 8.46095 32.4788 8.6465 32.7238 8.7133L33.1765 8.83947V10.8953C33.1765 13.1738 33.1394 13.4633 32.7163 14.3242C32.4046 14.9551 31.5214 15.8531 30.9054 16.1649C30.1855 16.5285 29.6585 16.6547 28.8718 16.6473C26.9347 16.6399 25.2425 15.3262 24.7601 13.4633C24.671 13.1293 24.6413 12.6543 24.6413 11.7563C24.6413 10.591 24.6562 10.4723 24.8195 10.1309C24.9159 9.92306 25.1238 9.63361 25.2796 9.48517C25.7249 9.06213 26.1109 8.92853 27.0683 8.87658C28.5007 8.78752 29.3468 8.46838 30.1929 7.68166L30.6827 7.2215L31.0613 7.62971C31.2617 7.85978 31.6179 8.16408 31.8554 8.31252ZM4.02337 10.2125L4.0011 11.2961L3.5929 11.2664C2.5761 11.1774 2.24212 10.0047 3.04368 9.32189C3.22923 9.16603 3.3554 9.12892 3.6597 9.12892H4.04563L4.02337 10.2125ZM15.8909 9.40353C16.0913 9.5965 16.1952 9.7672 16.2324 9.96017C16.2695 10.2274 16.2695 10.2348 15.8761 10.4278C15.6534 10.5391 15.3788 10.7024 15.2527 10.7914C14.8222 11.1106 14.8445 11.1477 14.8445 10.1012V9.12892H15.2156C15.5495 9.12892 15.6238 9.15861 15.8909 9.40353ZM20.4554 11.066C21.6503 11.2887 22.8304 12.2016 23.3425 13.3149C23.8249 14.3539 23.862 15.6082 23.439 16.5137L23.2683 16.8848L23.246 15.6973C23.2238 14.3762 23.1941 14.2871 22.7191 14.2129C22.1995 14.1313 21.8581 14.0125 21.6058 13.827C21.3386 13.6192 20.9304 13.0328 20.9304 12.8399C20.9304 12.6246 20.6484 12.3945 20.3812 12.3945C20.1214 12.3945 19.9284 12.5578 19.7429 12.9512C19.5722 13.2926 19.0304 13.7973 18.6445 13.9754C18.407 14.0793 18.0433 14.1461 17.5089 14.1832C16.5515 14.2574 16.0171 14.443 15.5347 14.8809C15.0894 15.2742 14.7925 15.8086 14.6663 16.4172L14.5699 16.8848L14.4066 16.4469C13.8499 14.9477 14.221 13.2852 15.3566 12.1719C16.2917 11.2516 17.0636 10.9918 18.8597 10.9918C19.4906 10.9844 20.2105 11.0215 20.4554 11.066ZM21.4648 15.0293C21.68 15.1332 21.9175 15.2149 21.9917 15.2149C22.1179 15.2149 22.1253 15.3485 22.1031 17.6418L22.0808 20.0762L21.8433 20.5809C21.5538 21.1969 20.9156 21.85 20.3292 22.132C18.4663 23.0301 16.2398 21.9317 15.8019 19.8981C15.7574 19.6754 15.7351 18.8887 15.7499 17.9313L15.7722 16.343L15.9949 16.0164C16.3511 15.5192 16.7222 15.3559 17.6574 15.2817C18.0878 15.252 18.548 15.1926 18.6667 15.1555C19.0824 15.0293 19.6316 14.7176 19.9656 14.4133L20.2995 14.1164L20.6855 14.4801C20.9007 14.6879 21.2495 14.9328 21.4648 15.0293ZM25.814 16.8106C25.9921 16.9219 26.1183 17.0406 26.1109 17.0703C26.096 17.1 25.8808 17.3004 25.621 17.5156C24.8566 18.1465 24.3074 18.9703 23.9659 20.002C23.8027 20.4918 23.7952 20.6551 23.7656 22.9856L23.7359 25.4496L23.4687 25.4942C23.3202 25.5164 23.0679 25.5684 22.9195 25.5981C22.6374 25.6649 22.6374 25.6649 22.6374 25.4274C22.63 24.752 22.2812 23.8391 21.7617 23.1785L21.4648 22.8074L21.9917 22.2582C22.8081 21.4121 23.2312 20.4176 23.2312 19.3563V18.8516L23.6765 18.2949C24.1367 17.716 24.4929 17.0481 24.6413 16.4766C24.6933 16.291 24.7452 16.0981 24.7601 16.0387C24.7824 15.9719 24.9085 16.0461 25.146 16.2688C25.339 16.4543 25.6433 16.6992 25.814 16.8106ZM13.3156 16.7141C13.5159 17.293 13.9019 17.961 14.2878 18.3914C14.6144 18.7477 14.6218 18.7774 14.6218 19.2375C14.6218 19.8535 14.8519 20.7442 15.1562 21.3231C15.2972 21.5828 15.6312 22.0133 15.9281 22.3176L16.4624 22.852L16.2695 23.0227C15.7648 23.4903 15.2898 24.559 15.2898 25.2418V25.6203L14.9781 25.5684C14.7999 25.5387 14.6367 25.5016 14.607 25.4793C14.5699 25.4645 14.5476 24.3883 14.5476 23.0969C14.5476 20.4176 14.5105 20.1653 14.0058 19.1485C13.7609 18.6512 13.5605 18.3766 13.0632 17.8793C12.7144 17.5231 12.3656 17.1965 12.2839 17.152C12.1503 17.0778 12.1503 17.0629 12.2542 17.0035C12.3136 16.959 12.5363 16.7957 12.7366 16.6324C12.937 16.4692 13.1152 16.3356 13.1374 16.3281C13.1597 16.3281 13.2413 16.5063 13.3156 16.7141ZM8.56556 17.7086L8.90696 17.7606V21.2266V24.6926L7.25931 24.4477C6.34641 24.3067 5.5597 24.1953 5.51516 24.1953C5.36673 24.1953 5.38157 21.0262 5.53001 20.4473C5.7972 19.4379 6.64329 18.3617 7.53391 17.9016C8.02376 17.6492 8.06087 17.6418 8.56556 17.7086ZM11.3636 17.9313C11.9796 18.2578 12.6699 18.9629 12.9816 19.5789C13.412 20.4324 13.4343 20.6031 13.4343 23.0598C13.4343 25.1528 13.4269 25.3086 13.3081 25.3086C13.2339 25.3086 12.5066 25.2047 11.6902 25.086C10.8738 24.9672 10.1613 24.8633 10.1167 24.8633C10.0425 24.8633 10.0202 24.0988 10.0202 21.3082V17.7457L10.2281 17.716C10.7031 17.6418 10.8738 17.6789 11.3636 17.9313ZM28.2781 17.7457C28.7456 17.8125 29.0574 17.8051 29.5843 17.7383L30.2894 17.6418L30.7792 17.8942C31.7738 18.3988 32.6124 19.4973 32.8425 20.6106C32.9167 20.952 32.9538 21.5977 32.9538 22.6145V24.1063L32.7534 24.1508C32.6347 24.1731 32.2785 24.225 31.9519 24.2695C31.6253 24.3141 31.2617 24.366 31.1503 24.3883C30.7495 24.4699 30.5417 24.8856 30.7273 25.2344C30.8831 25.5238 31.1206 25.5164 33.1394 25.227C34.2007 25.0711 35.1433 24.9375 35.2398 24.9375H35.4031V27.0082V29.0789L35.2027 29.1235C35.0839 29.1457 34.4976 29.2348 33.8816 29.3164C33.273 29.3981 32.6941 29.4871 32.605 29.502C32.4417 29.5391 32.4343 29.5242 32.4343 28.9602C32.4343 28.218 32.2859 27.9805 31.8331 27.9805C31.5511 27.9805 26.571 28.6856 26.3335 28.7672C26.0886 28.8414 26.0144 29.0418 25.9773 29.7543L25.9402 30.4668L24.0105 30.7414C22.9492 30.8973 21.9324 31.0754 21.7542 31.1422C21.2866 31.3203 20.8191 31.7805 20.5667 32.3149C20.3663 32.7379 19.8468 33.3242 19.6687 33.3242C19.5425 33.3242 19.5722 30.4 19.7058 29.9102C20.0249 28.7004 20.8859 27.6465 21.9843 27.1047C22.7265 26.741 22.9417 26.6965 26.4523 26.1918C29.473 25.7539 29.5398 25.7391 29.5398 25.2641C29.5398 24.9598 29.3245 24.7149 29.0574 24.7149C28.8792 24.7149 25.4652 25.1973 25.0718 25.2789L24.864 25.3235V23.2156C24.864 20.811 24.9234 20.4102 25.3613 19.5715C25.7101 18.9035 26.3781 18.2281 27.0163 17.9016C27.5507 17.627 27.4691 17.6418 28.2781 17.7457ZM18.4218 23.5274C18.882 23.609 19.4757 23.5645 20.1882 23.4086C20.3366 23.3789 20.4406 23.4383 20.7226 23.7129C21.2199 24.2028 21.4574 24.7223 21.5019 25.4422L21.5464 26.0285L21.0714 26.3106C20.5296 26.6445 19.7206 27.4164 19.4089 27.9137C18.971 28.5965 19.0156 28.5594 18.9116 28.3961C18.8597 28.3219 18.7187 28.1067 18.5999 27.9137C18.2808 27.4164 17.3902 26.5778 16.8632 26.2735L16.4031 26.0137V25.5164C16.4031 24.8113 16.6183 24.277 17.1156 23.7649C17.457 23.416 17.5312 23.3641 17.7167 23.4012C17.8281 23.4309 18.1472 23.4828 18.4218 23.5274ZM4.64681 25.1973C5.62649 25.3383 8.29095 25.7242 10.5769 26.0508C12.8628 26.3848 14.9335 26.7039 15.171 26.7633C16.6702 27.1492 17.8874 28.3738 18.2956 29.9102C18.4292 30.4 18.4589 33.3242 18.3327 33.3242C18.162 33.3242 17.6277 32.7379 17.4644 32.3742C17.2417 31.8621 16.7816 31.3723 16.3437 31.1867C16.121 31.0903 15.2527 30.927 13.8796 30.7266C12.7144 30.5633 9.81243 30.1403 7.42259 29.7988C5.03274 29.45 2.96946 29.1531 2.84329 29.1309L2.59837 29.0863V27.0156C2.59837 25.0414 2.60579 24.9375 2.73938 24.9375C2.8136 24.9375 3.67454 25.0563 4.64681 25.1973ZM31.321 32.7231C31.321 35.7438 31.3062 36.2856 31.2097 36.3672C31.0835 36.4711 31.0909 36.4711 30.2968 35.8699C29.7105 35.4246 29.5546 35.3578 29.0945 35.3875C28.7234 35.4098 28.5824 35.484 27.9738 35.959C27.6324 36.2262 27.3058 36.434 27.239 36.4266C27.1425 36.4043 27.1277 36.0035 27.1054 33.0793C27.098 31.2535 27.1128 29.7617 27.1425 29.7543C27.1796 29.7543 28.0406 29.6207 29.0574 29.4649C30.0816 29.309 31.0019 29.1828 31.1206 29.1754L31.321 29.168V32.7231ZM8.92181 31.1348C14.3472 31.9215 15.8835 32.1664 16.032 32.2703C16.1359 32.3445 16.3437 32.6488 16.507 32.9457C16.8706 33.636 17.2566 34.0219 17.8726 34.3113C18.3105 34.5192 18.4441 34.5488 19.0007 34.5488C19.5574 34.5488 19.6909 34.5192 20.1288 34.3113C20.7449 34.0219 21.1308 33.636 21.4945 32.9457C21.6577 32.6488 21.8656 32.3445 21.9695 32.2703C22.1031 32.1738 22.6523 32.0699 23.9659 31.877C24.9605 31.736 25.8214 31.6172 25.8734 31.6172C25.955 31.6172 25.9773 31.8102 25.9773 32.5449C25.9773 33.057 25.9624 33.4727 25.9476 33.4727C25.8437 33.4727 23.3277 33.8512 23.2534 33.8809C23.2015 33.8957 22.9937 34.1481 22.7859 34.4301C22.5781 34.7195 22.2292 35.1055 22.0214 35.291C21.2644 35.959 19.9952 36.4414 19.0007 36.4414C17.5757 36.4414 16.0171 35.6102 15.223 34.4449C15.0597 34.2149 14.889 33.9848 14.837 33.9403C14.7777 33.8957 14.0132 33.7547 13.1374 33.6211C12.2617 33.4949 9.35227 33.0719 6.6804 32.686C4.00852 32.3 1.76712 31.966 1.70032 31.9512C1.64095 31.9289 1.49251 31.8176 1.38118 31.6988C0.950711 31.2535 1.09915 30.4817 1.65579 30.2442C1.78196 30.1848 1.91556 30.1403 1.94524 30.1328C1.97493 30.1328 5.11438 30.5856 8.92181 31.1348ZM36.4941 30.3184C36.739 30.4817 36.9097 30.9121 36.8577 31.2387C36.8206 31.491 36.5163 31.8844 36.3011 31.9512C36.1898 31.9883 32.6273 32.5078 32.5011 32.5078C32.4195 32.5078 32.412 30.6524 32.4937 30.6449C32.5234 30.6449 33.2804 30.5262 34.1784 30.3926C35.8855 30.1328 36.1898 30.1254 36.4941 30.3184Z" fill="#CA9457"/>
<path d="M7.8375 9.28478C7.65938 9.4258 7.64453 9.47775 7.64453 10.0641C7.64453 10.591 7.6668 10.7098 7.79297 10.836C7.97852 11.0215 8.34219 11.0289 8.52774 10.8434C8.84688 10.5242 8.83204 9.58166 8.49805 9.29962C8.26055 9.09181 8.08985 9.08439 7.8375 9.28478Z" fill="#CA9457"/>
<path d="M10.3609 9.28478C10.1828 9.4258 10.168 9.47775 10.168 10.0641C10.168 10.591 10.1902 10.7098 10.3164 10.836C10.502 11.0215 10.8656 11.0289 11.0512 10.8434C11.3703 10.5242 11.3555 9.58166 11.0215 9.29962C10.784 9.09181 10.6133 9.08439 10.3609 9.28478Z" fill="#CA9457"/>
<path d="M8.01696 12.4688C7.80914 12.6766 7.82399 13.0699 8.03922 13.2629C8.3361 13.5449 8.82594 13.6934 9.46422 13.6934C9.96148 13.6934 10.1248 13.6563 10.481 13.4855C10.9783 13.2406 11.1267 12.966 10.9486 12.6172C10.7705 12.2758 10.5255 12.2387 9.98375 12.4762C9.59039 12.6543 9.1525 12.632 8.75914 12.4316C8.46227 12.2758 8.19508 12.2906 8.01696 12.4688Z" fill="#CA9457"/>
<path d="M26.1774 9.79688C25.7915 10.1012 25.9845 10.6727 26.5188 10.7988C26.6821 10.8434 26.7192 10.8953 26.7192 11.0734C26.7192 11.3406 27.0161 11.6523 27.261 11.6523C27.3575 11.6523 27.5282 11.5855 27.6395 11.4965C27.8177 11.3555 27.8325 11.3035 27.8325 10.7246C27.8325 9.98242 27.7286 9.83399 27.1794 9.77461C26.9864 9.75235 26.7266 9.71524 26.6079 9.68555C26.4372 9.64844 26.3333 9.67813 26.1774 9.79688Z" fill="#CA9457"/>
<path d="M31.0234 9.72267C30.9641 9.75978 30.7711 9.79689 30.6004 9.79689C30.0957 9.79689 29.9844 9.96017 29.9844 10.7098C29.9844 11.259 30.0066 11.3481 30.1551 11.4891C30.5039 11.8156 30.9937 11.6227 31.068 11.1328C31.1051 10.9028 31.1496 10.836 31.3129 10.7988C31.8324 10.6727 32.018 10.1012 31.6469 9.80431C31.4316 9.63361 31.2016 9.60392 31.0234 9.72267Z" fill="#CA9457"/>
<path d="M27.4987 13.1739C27.1498 13.5153 27.2983 13.8938 27.8846 14.1832C28.3745 14.4207 29.4061 14.4281 29.9182 14.1981C30.5045 13.9309 30.6678 13.5153 30.319 13.1739C30.1038 12.9512 29.9553 12.9438 29.5323 13.1367C29.3541 13.2184 29.0721 13.2852 28.9088 13.2852C28.7455 13.2852 28.4635 13.2184 28.2854 13.1367C27.8623 12.9438 27.7139 12.9512 27.4987 13.1739Z" fill="#CA9457"/>
<path d="M17.5824 16.766C17.4266 16.8922 17.4043 16.9738 17.4043 17.4414C17.4043 17.909 17.4266 17.9906 17.5824 18.1168C17.8051 18.3024 18.1465 18.2949 18.332 18.1094C18.4508 17.9906 18.4805 17.8645 18.4805 17.4414C18.4805 17.0184 18.4508 16.8922 18.332 16.7735C18.1465 16.5879 17.8051 16.5805 17.5824 16.766Z" fill="#CA9457"/>
<path d="M19.5344 16.7958C19.4008 16.9368 19.3711 17.0556 19.3711 17.4489C19.3711 17.8646 19.4008 17.961 19.5418 18.0946C19.7867 18.3247 20.1355 18.3099 20.3285 18.0649C20.4473 17.9165 20.4844 17.7606 20.4844 17.4415C20.4844 17.1224 20.4473 16.9665 20.3285 16.8181C20.1281 16.5657 19.757 16.5509 19.5344 16.7958Z" fill="#CA9457"/>
<path d="M17.7464 19.2524C17.3753 19.6458 17.687 20.143 18.4366 20.3434C19.0972 20.5215 20.0843 20.2395 20.2624 19.8165C20.4554 19.3563 19.9878 18.9407 19.498 19.1411C19.112 19.3043 18.8226 19.3192 18.5257 19.193C18.1324 19.0297 17.9394 19.0446 17.7464 19.2524Z" fill="#CA9457"/>
</svg>
