<svg width="62" height="62" viewBox="0 0 62 62" fill="none" xmlns="http://www.w3.org/2000/svg">
<g clip-path="url(#clip0_378_65)">
<path d="M41.4758 58.234C42.3477 58.0281 46.2833 55.9816 47.9544 54.8676C50.1219 53.4266 51.345 52.4457 53.1735 50.6172C59.095 44.732 61.3352 38.5441 61.8801 26.5801C61.9649 24.8605 62.0012 20.0531 61.977 14.7734C61.9407 6.50273 61.9286 5.83672 61.7227 5.43711C61.4321 4.86797 60.8629 4.28672 60.2575 3.95977L59.761 3.69336L49.2864 3.69336C40.7251 3.69336 38.727 3.72969 38.3395 3.86289C37.7462 4.06875 36.9954 4.74688 36.6563 5.37656L36.3899 5.87305L36.3536 16.2145C36.3172 27.5852 36.3051 27.3309 37.0559 28.2391C37.2497 28.4812 37.6977 28.8203 38.0489 28.9898L38.6786 29.3047L43.6797 29.3047L48.6809 29.3047L48.6809 30.1887C48.6809 32.1262 48.2087 34.8508 47.5305 36.8852C45.9926 41.4867 43.3165 44.393 38.2669 46.9238C37.286 47.4203 36.3294 47.9773 36.1114 48.2074C35.5544 48.7766 35.3243 49.4789 35.3848 50.3992C35.4333 51.0773 35.6028 51.5133 36.8743 54.1652C38.3637 57.2773 38.6423 57.7012 39.5262 58.0644C40.0712 58.2945 40.9188 58.3672 41.4758 58.234Z" fill="#F5F5F5"/>
<path d="M7.0254 57.8465C15.175 54.2863 21.3871 48.2316 24.1359 41.1719C24.9231 39.1617 25.6254 36.098 26.025 32.9375C26.5336 28.9777 26.582 27.4883 26.582 16.4688C26.582 6.30898 26.5699 5.84883 26.352 5.41289C26.0613 4.81953 25.5406 4.29883 24.8988 3.95977L24.4023 3.69336L13.8672 3.69336C3.4168 3.69336 3.33203 3.69336 2.78711 3.94766C2.1332 4.25039 1.64883 4.72266 1.28555 5.38867C1.03125 5.87305 1.03125 5.89727 0.994924 16.2145C0.958597 27.5852 0.946488 27.3309 1.69727 28.2391C1.89102 28.4813 2.33907 28.8203 2.69024 28.9898L3.31993 29.3047L8.38164 29.3047C13.3102 29.3047 13.4434 29.3047 13.4434 29.5348C13.4434 30.443 13.1285 33.1191 12.8863 34.3301C12.5109 36.1949 12.1113 37.3938 11.3242 39.0527C9.65313 42.5645 7.11016 44.9258 2.78711 47.0086C0.558989 48.0742 0.0746137 48.6434 0.0625041 50.1934C0.0625041 51.0289 0.0867237 51.0774 1.45508 53.9231C2.21797 55.4973 3.00508 56.9988 3.19883 57.241C4.0586 58.2824 5.49962 58.5125 7.0254 57.8465Z" fill="#F5F5F5"/>
</g>
<defs>
<clipPath id="clip0_378_65">
<rect width="62" height="62" fill="white" transform="translate(62 62) rotate(180)"/>
</clipPath>
</defs>
</svg>
