<svg width="40" height="40" viewBox="0 0 40 40" fill="none" xmlns="http://www.w3.org/2000/svg">
<circle cx="20" cy="20" r="19.5" transform="rotate(-90 20 20)" stroke="#D7B679"/>
<path d="M13.7604 13.9053C13.8532 14.2099 14.1657 14.3819 14.4782 14.3033C14.571 14.2836 15.4157 13.4631 17.0173 11.8563L19.4245 9.44378L19.4343 20.8235L19.4489 32.2082L19.5515 32.3458C19.6052 32.4195 19.7419 32.5178 19.8542 32.5571C20.0349 32.621 20.0739 32.616 20.2253 32.5423C20.3181 32.4981 20.4353 32.3998 20.4841 32.3261C20.5671 32.1984 20.572 31.6726 20.5866 20.8186L20.5964 9.44378L22.9792 11.8318C24.2878 13.1486 25.4207 14.2492 25.4939 14.2738C25.8113 14.3966 26.1091 14.2738 26.2361 13.9691C26.3777 13.6252 26.4363 13.694 23.2478 10.4904C21.2458 8.47581 20.2351 7.4931 20.1423 7.47345C20.069 7.45379 19.9519 7.45379 19.8737 7.47345C19.7858 7.4931 18.78 8.4709 16.7927 10.4609C14.278 12.9864 13.6774 13.6252 13.7165 13.748C13.7165 13.7579 13.7409 13.8267 13.7604 13.9053Z" fill="#D7B679"/>
</svg>
